<svg version="1.2" xmlns="http://www.w3.org/2000/svg" viewBox="0 0 1541 243" width="1541" height="243">
	<title>Chanel_logo_interlocking_cs-svg</title>
	<style>
		.s0 { fill: #161413 } 
	</style>
	<g id="g2452">
		<g id="g2414">
			<g id="g2438">
				<g id="g4">
					<path id="path6" fill-rule="evenodd" class="s0" d="m222.6 177.8c-0.2 0.4-0.6 1.1-0.8 1.7-19.9 37.6-58.9 63.2-103.5 63.2-64.6 0-117.6-54.2-117.6-121.1 0-66.5 53-121 117.6-121 44.8 0 84 26.2 103.7 64.3 0.6 0.7 0.8 1.1 1.3 2.2 0.2 0.2-37.6 27.5-37.9 26.9-0.2-0.7-0.4-1.3-0.8-1.7-10.8-27-36.6-45.1-66.3-44.5-39.6 0.3-72.2 33.1-72.2 73.8 0 41.1 32.6 74.3 72.2 74.3 28.8 0 53.8-17.7 65.2-42.8 0.6-0.9 0.8-1.6 1.1-2.4z"/>
				</g>
				<g id="g8">
					<path id="path10" fill-rule="evenodd" class="s0" d="m271.4 2.8h45.3v84.6h119v-84.6h45.6v235.3h-45.6v-103.4h-119v103.4h-45.3z"/>
				</g>
				<g id="g12">
					<path id="path14" fill-rule="evenodd" class="s0" d="m1120.8 238.1v-235.3h164.4v47.5h-118.6v47h109.6v47h-109.6v47h135.4v46.8z"/>
				</g>
				<g id="g16">
					<path id="path18" fill-rule="evenodd" class="s0" d="m1366.3 238.1v-235.3h46v188.5h127.8v46.8z"/>
				</g>
				<g id="g20">
					<path id="path22" fill-rule="evenodd" class="s0" d="m873.6 238.1h-1.5-44.5v-235.3h3.3 60.6l100.7 141.5v-141.5h45.7v235.3h-36.5l-127.8-177.4z"/>
				</g>
				<g id="g24">
					<path id="path26" fill-rule="evenodd" class="s0" d="m593.5 191.3l-21 46.8h-54.5l104.2-235.3h63.7l105 235.3h-54.5l-21.2-46.8zm60.8-141l-40.1 94h82.1z"/>
				</g>
			</g>
		</g>
	</g>
</svg>