<!-- icon666.com - MILLIONS vector ICONS FREE --><svg viewBox="0 0 512 512" xmlns="http://www.w3.org/2000/svg"><g id="Layer_2" data-name="Layer 2"><g id="Layer_1-2" data-name="Layer 1"><g id="P"><circle cx="256" cy="256" fill="#252a3f" r="256" style="fill: rgb(255, 255, 255);"></circle><circle cx="256" cy="256" fill="#c694ff" r="231.71" style="fill: rgb(10, 194, 255);"></circle><path id="P-2" d="m281.71 292.55h-46.49v70.92q0 15.21-7.17 23.07a23.5 23.5 0 0 1 -18.12 7.86q-11.44 0-18.46-7.77t-7-22.82v-193.11q0-16.75 7.69-23.93t24.44-7.17h65.11q28.88 0 44.43 4.44a66.3 66.3 0 0 1 26.58 14.18 64 64 0 0 1 17 24.27 85.51 85.51 0 0 1 5.81 32.3q0 38.28-23.58 58t-70.24 19.76zm-12.31-114.84h-34.18v76.56h34.18q18 0 30-3.76t18.37-12.31q6.32-8.53 6.32-22.38 0-16.57-9.74-27-10.94-11.11-44.95-11.11z" fill="#252a3f" data-name="P" style="fill: rgb(255, 255, 255);"></path></g></g></g></svg>