<?xml version="1.0" encoding="utf-8"?>
<!-- Generator: Adobe Illustrator 19.2.1, SVG Export Plug-In . SVG Version: 6.00 Build 0)  -->
<svg version="1.1" id="layer" xmlns="http://www.w3.org/2000/svg" xmlns:xlink="http://www.w3.org/1999/xlink" x="0px" y="0px"
	 viewBox="0 0 652 652" style="enable-background:new 0 0 652 652;" xml:space="preserve">
<g>
	<path d="M92.2,305.2l9.7-5.2c0,0-13.2-19.4-42.4-16.8C30.4,285.9,22.9,310,22.9,310s-9.4,28.7,17.8,44.2c0,0,27.7,14.8,52.7-3.2
		c0,0,14.9-10.6,14.4-31.1H78.3l0.2,9.7H95c0,0-5.3,20.5-30.4,20.3c-25.1-0.2-30.7-18.5-30.7-18.5s-9.1-26.6,18.6-36.4
		C52.5,295,75.3,287,92.2,305.2"/>
	<path d="M157.3,359.2c38.2,0.4,36.9-23.5,36.9-23.5v-46.6h-9.7v43.1c0,0,1.8,18.6-27.2,17.8c-29.1,0.8-27.2-17.8-27.2-17.8v-43.1
		h-9.7v46.6C120.4,335.6,119.1,359.6,157.3,359.2"/>
	<polygon points="209.6,290.1 269,290.1 269,299.1 219.5,299.1 219.5,317.8 258.4,317.8 258.4,327.1 219.5,327.1 219.5,348.5 
		269,348.5 269,357.9 209.6,357.9 	"/>
	<path d="M335.4,330.8c17.1-3.5,16.1-20,16.1-20c0-21.5-18.7-21.4-18.7-21.4l-49.8,0.1l-0.1,68.5h9l0.1-26.5h32.2l16.7,26.5h10.5
		L335.4,330.8z M329.4,321.8h-37.3v-23.2l38.2-0.1c0,0,11.7-1.2,11.7,11.7S329.4,321.8,329.4,321.8"/>
	<polygon points="364.6,289.4 374.4,289.4 374.4,348.4 425,348.4 425,357.9 364.6,357.9 	"/>
	<path d="M480,289.4h-12.6l-32.6,68.5h10.1l7.2-15.8l43,0.1l7.2,15.7h10.3L480,289.4z M456.9,332.6l16.7-34.8l16.7,34.8H456.9z"/>
	<rect x="523.3" y="289.4" width="9.2" height="68.5"/>
	<polygon points="548.3,289.4 561.2,289.4 611.4,346.9 611.4,289.4 621.4,289.4 621.4,357.9 608.7,357.9 558.2,300.2 558.2,357.9 
		548.3,357.9 	"/>
</g>
</svg>
