<svg id="Layer_1" data-name="Layer 1" xmlns="http://www.w3.org/2000/svg" viewBox="0 0 638 164.36"><defs><style>.cls-1{fill-rule:evenodd;}</style></defs><title>Lancôme Logo Vector</title><rect x="361.27" y="133.37" width="5.77" height="30.46"/><path class="cls-1" d="M590.58,560.65c-1.05-3.15-3.67-5.25-11-5.25-4.2,0-7.88,1.05-7.88,3.67,0,1.58.52,2.63,6.83,3.68l7.35,1c6.82,1.05,10.5,3.68,10.5,8.41,0,7.34-6.82,10-14.7,10-13.13,0-16.28-6.3-17.33-8.4l5.78-2.1c1,2.1,3.67,5.25,11.55,5.25,4.72,0,8.93-1.58,8.93-4.2,0-1.58-2.1-3.15-6.83-3.68l-7.35-1c-6.82-.52-11-3.67-11-8.4,0-8.93,12.08-8.93,14.18-8.93,13.13,0,15.75,5.78,16.28,7.88l-5.26,2.1Z" transform="translate(-181 -417.82)"/><path class="cls-1" d="M731.31,516c1.58,15.76,9.45,13.13,10,14.71H710.83c-.53-.53,8.4-.53,6.82-13.66l-7.87-59.86c-.53-1.57-.53-3.15-1.58-3.15-.52.53-26.78,64.59-26.78,64.59-.52,1.05-1,1.57-2.1,0-.52-1-24.68-54.09-24.68-54.09-1-2.62-3.15-6.83-3.67-7.87s-1.58-1.05-1.58,3.15l-6.3,60.39c-1.57,10.5,8.4,10,8.4,10.5h-22c0-.53,7.35.53,8.92-10.5l7.36-66.69c-.52-13.13-9.46-12.6-9.46-13.66h23.11v1.05l24.16,53,1.05,1.05c.52,1.58.52,2.63,1.58,1.05l23.62-56.19h22.06c0,1.05-8.93.53-8.93,11.56l8.4,64.58Z" transform="translate(-181 -417.82)"/><path class="cls-1" d="M228.26,527.57H216.18c-4.2,0-9.45.52-9.45-4.2V453c0-11,12.08-11,12.6-12.08H182.05c-.52,1.05,11.56,1.05,11.56,12.61v67.73c0,8.93-12.61,8.93-12.61,9.46h65.64l3.67-19.43c-1.57,0-.52,15.75-22.05,16.28Z" transform="translate(-181 -417.82)"/><path class="cls-1" d="M773.31,486.08v34.13c0,6.83-.52,7.36,4.21,7.36h24.15c19.43-1.05,15.75-14.71,17.33-15.24l-.52,18.38H750.74c-.53-.53,10,1,10-13.65v-63c0-14.7-9.46-12.6-9.46-13.65h67.22l.52,17.85c-1,0,2.63-14.18-17.85-15.22H779.09c-3.68,1.05-5.78-1.58-5.78,7.35V474c0,3.15.53,3.68,4.73,3.68H800.1c10.5,0,9.45-10,10-10v23.63c-.53,0,.52-11-9.46-10.5h-22c-4.73,0-5.26,1.57-5.26,4.72v.53Z" transform="translate(-181 -417.82)"/><path class="cls-1" d="M368.46,521.26c1.05,11,9.46,8.41,9.46,9.46H354.28c0-1.05,9.46,0,9.46-10V452.48c0-11.55-10-11.55-10.51-12.61h24.16l49.36,61.44-.52-49.88c0-12.08-9.46-11-9.46-11.56h24.69c0,.53-9.46.53-10,11.56v77.19s.52,5.77-3.15,1c-1.58-2.1-59.34-75.09-59.34-75.09-.53-1.05-.53,0-.53,1.57v65.11Z" transform="translate(-181 -417.82)"/><path class="cls-1" d="M336.43,519.17h0L303.35,440.4c-2.62-2.62-3.67.53-3.67.53-3.15,7.35-33.6,80.34-33.6,80.34-4.2,10-9.46,8.92-9.46,9.45h21.53c0-1.05-11.55.53-7.35-9.45l11-27.83c1.57-2.1,1.57-2.63,4.2-2.63h21.52c2.63,0,2.63,0,4.2,2.63l10.5,26.78c3.15,10.5-6.3,10-6.3,10.5h30.46C346.94,529.67,341.68,532.82,336.43,519.17ZM307,486.61H288.12c-2.09,0-2.09-1.58-1.05-3.67,0,0,7.88-20.48,8.93-22.58,1.58-3.15,2.63-2.63,3.68,0l7.87,23.1C308.6,485.56,309.65,486.61,307,486.61Z" transform="translate(-181 -417.82)"/><polygon class="cls-1" points="436.36 17.85 399.6 0 363.37 17.85 399.6 6.82 436.36 17.85"/><path class="cls-1" d="M581.13,438.3c-28.88,0-47.26,22.58-47.26,46.73s18.38,45.69,46.73,45.69,47.26-21.53,47.26-45.69S609.48,438.3,581.13,438.3Zm-.53,89.27c-17.85,0-29.4-16.8-29.4-42,0-29.41,12.08-43.58,29.4-43.58S610,456.16,610,485.56C610,510.77,597.94,527,580.6,527.57Z" transform="translate(-181 -417.82)"/><path class="cls-1" d="M494,527c21,0,29.93-14.7,32-15.22.52,0-10.51,18.9-32,18.9-48.83,0-48.31-44.64-48.31-44.64,1.58-31,26.79-49.88,50.94-47.26,6.83,1.05,9.45,2.1,14.18,3.15,2.1,1,8.4,4.2,10.5,3.16,1.57-.53,3.15-4.2,3.67-4.2v24.16c-1.57,0-7.34-23.11-30.45-23.11-18.91,0-33.61,21.53-33.08,43,.52,35.71,25.2,42,32.55,42Z" transform="translate(-181 -417.82)"/><path class="cls-1" d="M420.45,551.19H403.64v30.46h5.78V569.58h11c5.25,0,13.65,0,13.65-8.93C434.1,551.19,425.7,551.19,420.45,551.19ZM422,564.85h-12.6v-8.4H422c3.16,0,6.31,0,6.31,4.19C428.33,564.32,425.18,564.85,422,564.85Z" transform="translate(-181 -417.82)"/><path class="cls-1" d="M463,551.19h-6.83l-14.7,30.46h6.3l3.15-6.83h17.33l3.15,6.83h6.3Zm-9.46,18.39h0l6.3-13.66,6.3,13.66Z" transform="translate(-181 -417.82)"/><path class="cls-1" d="M515,569.05c4.73,0,8.41-3.15,8.41-8.92,0-7.36-5.25-8.94-12.08-8.94H492.91v30.46h5.78V569.58h9.45l8.93,12.07h7.35Zm-16.27-4.2v-8.93h11.55c4.72,0,7.35,1.05,7.35,4.2,0,3.68-2.63,4.73-7.35,4.73Z" transform="translate(-181 -417.82)"/></svg>