<?xml version="1.0" encoding="UTF-8"?>
<svg id="_Слой_1" data-name="Слой_1" xmlns="http://www.w3.org/2000/svg" viewBox="0 0 2055.65 2113.97">
  <defs>
    <style>
      .cls-1 {
        fill: #000;
      }

      .cls-2 {
        fill: #0395ff;
      }
    </style>
  </defs>
  <path class="cls-1" d="M89.99,966.17c22.59,0,41.76,8,57.52,24,16,15.77,24,34.94,24,57.52s-8,41.76-24,57.52c-16,16-35.17,24-57.52,24h-49.41v83.99H0v-247.04h89.99ZM40.58,1088.63h49.41c10.82,0,20.35-4.11,28.59-12.35,8-8,12-17.52,12-28.59s-4-20.58-12-28.59c-8.24-8.23-17.77-12.35-28.59-12.35h-49.41v81.88Z"/>
  <path class="cls-1" d="M368.08,1036.76v176.46h-37.05v-20.82c-.71.94-1.41,1.94-2.12,3-.71,1.06-1.53,1.94-2.47,2.65-12.71,12.94-29.41,19.41-50.11,19.41-25.18,0-46-8.94-62.46-26.82-16.71-17.88-25.06-39.76-25.06-65.64s8.35-47.76,25.06-65.64c16.46-17.88,37.29-26.82,62.46-26.82,20.47,0,37.17,6.71,50.11,20.12.94.94,1.76,1.89,2.47,2.82.71.94,1.41,1.89,2.12,2.82v-21.53h37.05ZM244.21,1087.93c-9.41,10.12-14.12,22.47-14.12,37.06s4.7,26.94,14.12,37.05c9.18,10.12,20.82,15.18,34.94,15.18s25.64-5.06,34.58-15.18c4.47-4.94,7.82-10.53,10.06-16.76,2.23-6.23,3.35-13,3.35-20.29s-1.12-14.35-3.35-20.47c-2.24-6.12-5.59-11.65-10.06-16.59-8.94-10.11-20.47-15.18-34.58-15.18s-25.76,5.06-34.94,15.18Z"/>
  <path class="cls-1" d="M584.73,1024.76v12h48v40.58h-48v135.87h-40.58v-135.87c-10.3-2.69-19.03-3.44-25.13-3.6-9.89-.27-20.49-.56-32.42,4.7-7.78,3.43-13.31,7.99-15.47,9.85-11.53,9.87-18.36,23.29-20.47,40.23v84.7h-40.59v-176.45h38.47v24.69c.94-.94,1.82-1.87,2.65-2.82.83-.94,1.71-1.88,2.66-2.82,4.1-3.94,8.5-7.43,13.17-10.46,1.37-.94,3.5-2.3,6.23-3.66,11.53-5.73,21.76-5.35,37.94-5.11,6.82.1,18.08.22,32.97.18v-12c0-17.88,6.35-33.18,19.05-45.88,12.71-12.71,28.11-19.05,46.23-19.05h23.29v40.58h-23.29c-6.83,0-12.59,2.35-17.29,7.05-4.94,4.94-7.42,10.72-7.42,17.3Z"/>
  <path class="cls-1" d="M692.73,1036.76v93.87c0,13.88,3.88,25.06,11.65,33.53,7.53,8.47,17.06,12.71,28.59,12.71s20.35-4.24,27.88-12.71c7.76-8.47,11.65-19.64,11.65-33.53v-93.87h40.58v92.46c0,25.65-7.76,46.71-23.29,63.17-15.53,16.71-34.47,25.06-56.82,25.06s-41.77-8.35-57.53-25.06c-15.53-16.47-23.29-37.52-23.29-63.17v-92.46h40.58Z"/>
  <path class="cls-1" d="M1085.52,1213.21v-93.87c0-14.12-3.65-25.29-10.94-33.53-7.06-8.47-16.12-12.7-27.17-12.7s-20.12,4.23-27.17,12.7c-7.3,8.24-10.94,19.41-10.94,33.53v93.87h-40.58v-93.87c0-14.12-3.65-25.29-10.94-33.53-7.06-8.47-16.12-12.7-27.17-12.7s-20.12,4.23-27.17,12.7c-7.3,8.24-10.94,19.41-10.94,33.53v93.87h-40.58v-176.46h38.47v17.65c.47-.71,1-1.29,1.59-1.76.58-.47,1-.94,1.24-1.41,11.06-12.47,25.64-18.7,43.76-18.7,21.64,0,39.17,8.12,52.58,24.35,1.64,1.65,3.05,3.47,4.24,5.47,1.17,2,2.23,4.06,3.18,6.18.94-2.35,2-4.47,3.18-6.35,1.17-1.88,2.35-3.65,3.53-5.29,12-16.23,28.7-24.35,50.11-24.35s39.17,8.12,52.58,24.35c6.58,8.24,11.52,17.65,14.82,28.23,3.29,10.59,4.94,22.47,4.94,35.64v92.46h-40.58Z"/>
  <path class="cls-1" d="M1200.92,1140.86c1.17,4.94,3,9.53,5.47,13.76,2.47,4.23,5.59,8,9.35,11.29,8.7,7.3,18.94,10.94,30.7,10.94,17.88,0,31.88-5.06,42-15.18l28.23,28.94c-17.65,17.88-41.06,26.82-70.23,26.82-25.41,0-46.94-9.05-64.58-27.17-17.88-18.11-26.82-39.88-26.82-65.29s8.59-47.52,25.76-65.64c17.17-17.88,38.47-26.82,63.88-26.82s44.7,8.94,60.7,26.82c15.53,17.18,23.29,39.06,23.29,65.64v15.88h-127.75ZM1214.33,1082.28c-7.3,6.59-12,14.94-14.12,25.06h83.99c-2.35-10.59-6.7-19.17-13.06-25.76-7.06-6.82-16.12-10.23-27.17-10.23s-21.41,3.65-29.64,10.94Z"/>
  <path class="cls-1" d="M1411.25,981.7v55.05h48.35v40.58h-48.35v59.29c0,10.12,3.41,18.59,10.23,25.41,7.06,7.06,15.64,10.59,25.76,10.59h12v40.58h-12c-21.18,0-39.29-7.53-54.35-22.59-14.82-14.82-22.23-32.82-22.23-54v-59.29h-28.94v-40.58h28.94v-55.05h40.58Z"/>
  <path class="cls-1" d="M1528.76,1036.76v24.7c.94-.94,1.82-1.88,2.65-2.82.82-.94,1.7-1.88,2.65-2.82,5.88-5.65,12.35-10.35,19.41-14.12,11.52-6.12,24.82-9.18,39.88-9.18v40.58c-16.23,0-30.23,5.06-42,15.18-11.53,9.88-18.35,23.29-20.47,40.23v84.7h-40.58v-176.46h38.47Z"/>
  <path class="cls-2" d="M1660.4,997.94c-4.94,4.94-10.82,7.41-17.65,7.41s-12.71-2.47-17.65-7.41c-4.94-4.7-7.41-10.47-7.41-17.29s2.47-12.7,7.41-17.65c4.94-4.7,10.82-7.06,17.65-7.06s12.71,2.35,17.65,7.06c4.7,4.71,7.06,10.59,7.06,17.65s-2.35,12.59-7.06,17.29Z"/>
  <rect class="cls-1" x="1621.93" y="1036.76" width="40.94" height="176.46"/>
  <path class="cls-1" d="M1708.74,966.17h40.58v139.4l64.23-68.82h55.05l-69.17,74.46,72.35,101.99h-50.46l-49.76-71.29-22.23,23.65v47.64h-40.58v-247.04Z"/>
  <path class="cls-1" d="M2055.65,1036.76v176.46h-37.06v-20.82c-.71.94-1.41,1.94-2.12,3-.71,1.06-1.53,1.94-2.47,2.65-12.7,12.94-29.41,19.41-50.11,19.41-25.18,0-46-8.94-62.47-26.82-16.71-17.88-25.06-39.76-25.06-65.64s8.35-47.76,25.06-65.64c16.47-17.88,37.29-26.82,62.47-26.82,20.47,0,37.17,6.71,50.11,20.12.94.94,1.77,1.89,2.47,2.82.71.94,1.41,1.89,2.12,2.82v-21.53h37.06ZM1931.78,1087.93c-9.41,10.12-14.12,22.47-14.12,37.06s4.7,26.94,14.12,37.05c9.18,10.12,20.82,15.18,34.94,15.18s25.64-5.06,34.58-15.18c4.47-4.94,7.82-10.53,10.06-16.76,2.23-6.23,3.35-13,3.35-20.29s-1.12-14.35-3.35-20.47c-2.24-6.12-5.59-11.65-10.06-16.59-8.94-10.11-20.47-15.18-34.58-15.18s-25.76,5.06-34.94,15.18Z"/>
</svg>